<svg width="300" height="300" viewBox="0 0 300 300" fill="none" xmlns="http://www.w3.org/2000/svg">
  <circle cx="150" cy="150" r="120" fill="#E8F0FF"/>
  <circle cx="150" cy="130" r="30" fill="#0066FF"/>
  <circle cx="110" cy="180" r="25" fill="#0066FF"/>
  <circle cx="190" cy="180" r="25" fill="#0066FF"/>
  <path d="M150 120C150 120 140 140 150 140C160 140 150 120 150 120Z" fill="white"/>
  <path d="M110 170C110 170 100 190 110 190C120 190 110 170 110 170Z" fill="white"/>
  <path d="M190 170C190 170 180 190 190 190C200 190 190 170 190 170Z" fill="white"/>
  <path d="M140 130H160M100 180H120M180 180H200" stroke="white" stroke-width="2" stroke-linecap="round"/>
  <path d="M150 200C150 200 130 190 110 190C90 190 90 210 110 210C130 210 150 200 150 200Z" fill="#FFD700"/>
  <path d="M150 200C150 200 170 190 190 190C210 190 210 210 190 210C170 210 150 200 150 200Z" fill="#FFD700"/>
</svg>