<svg width="300" height="300" viewBox="0 0 300 300" fill="none" xmlns="http://www.w3.org/2000/svg">
  <circle cx="150" cy="150" r="120" fill="#E8F0FF"/>
  <path d="M150 80C123.49 80 102 101.49 102 128C102 166.5 150 220 150 220C150 220 198 166.5 198 128C198 101.49 176.51 80 150 80ZM150 143C141.72 143 135 136.28 135 128C135 119.72 141.72 113 150 113C158.28 113 165 119.72 165 128C165 136.28 158.28 143 150 143Z" fill="#0066FF"/>
  <circle cx="150" cy="128" r="10" fill="white"/>
  <path d="M140 170C140 170 145 180 150 180C155 180 160 170 160 170C160 170 155 175 150 175C145 175 140 170 140 170Z" fill="#0066FF"/>
</svg>